#!OML:ASF E:\Steps\Project 1\Capture day 1\Session 2\Subject.ASF
:FULLY-SPECIFIED
:DEGREES
444
root 9.17226 16.2627 5.25719 -159.014 -3.60031 178.069
lowerback -23.7953 -4.27046 -3.87234
upperback 1.39722 -4.83193 1.01423
thorax 15.474 -2.58555 1.5987
lowerneck -2.44091 -2.11167 -1.86186
upperneck 21.0047 -1.79707 2.70491
head 6.83563 -0.2352 1.13509
rclavicle 4.93359e-014 1.14301e-015
rhumerus -44.8055 -23.9043 -69.7906
rradius 30.869
rwrist 3.53891
rhand -7.23591 -55.3646
rfingers 7.12502
rthumb 18.6439 -84.4911
lclavicle 4.93359e-014 1.14301e-015
lhumerus -26.0783 -0.112156 81.9301
lradius 38.3495
lwrist 1.21961
lhand -22.3336 -13.405
lfingers 7.12502
lthumb 4.0866 16.5356
rfemur -32.653 5.64275 18.7434
rtibia 14.5682
rfoot -11.5522 -5.90887
rtoes -28.7055
lfemur -24.9733 -8.86485 -23.0475
ltibia 41.0077
lfoot -7.09541 -4.75255
ltoes -21.3334
445
root 9.18896 16.2684 5.18351 -159.036 -3.79836 178.318
lowerback -23.6729 -4.17802 -3.58704
upperback 1.37512 -4.80826 1.10341
thorax 15.3573 -2.55666 1.5567
lowerneck -2.39144 -2.17159 -1.91618
upperneck 21.0314 -1.86197 2.6868
head 6.83781 -0.268322 1.13496
rclavicle -7.647e-015 -3.27995e-015
rhumerus -44.6768 -23.1453 -70.4815
rradius 31.8443
rwrist 2.30294
rhand -7.9437 -57.0529
rfingers 7.12502
rthumb 17.963 -86.2433
lclavicle -7.647e-015 -3.27995e-015
lhumerus -26.2855 -0.543298 82.1079
lradius 37.7269
lwrist 1.08046
lhand -21.7521 -13.1103
lfingers 7.12502
lthumb 4.64813 16.8187
rfemur -32.046 5.46164 19.3012
rtibia 14.2133
rfoot -11.7918 -5.68218
rtoes -29.0148
lfemur -26.2806 -8.33896 -22.6748
ltibia 43.6729
lfoot -5.17407 -4.72932
ltoes -19.5981
446
root 9.20236 16.2697 5.10981 -159.105 -4.02277 178.517
lowerback -23.519 -4.11846 -3.3125
upperback 1.30998 -4.82931 1.20219
thorax 15.1759 -2.55019 1.51773
lowerneck -1.85788 -2.08496 -1.81972
upperneck 20.6914 -1.70976 2.47836
head 6.62828 -0.208234 1.06124
rclavicle 3.41397e-014 -9.58515e-015
rhumerus -44.5292 -22.3906 -70.981
rradius 32.5154
rwrist 1.42495
rhand -8.23613 -57.5091
rfingers 7.12502
rthumb 17.6816 -86.7251
lclavicle 3.41397e-014 -9.58515e-015
lhumerus -26.7232 -0.888572 82.3111
lradius 37.2391
lwrist 0.854519
lhand -21.8294 -13.7615
lfingers 7.12502
lthumb 4.5735 16.1691
rfemur -31.349 4.89133 19.8855
rtibia 13.7236
rfoot -11.9694 -5.07063
rtoes -28.6331
lfemur -27.5945 -7.89744 -22.3849
ltibia 46.345
lfoot -2.98126 -4.64102
ltoes -17.0613
447
root 9.22505 16.2734 5.0346 -159.083 -4.02861 178.495
lowerback -23.347 -4.04764 -3.37879
upperback 1.24965 -4.72346 1.19683
thorax 15.0018 -2.50872 1.5997
lowerneck -1.82188 -2.14398 -2.09108
upperneck 20.5509 -1.85154 2.86514
head 6.58611 -0.273089 1.22113
rclavicle -2.97197e-015 4.34861e-015
rhumerus -44.3724 -21.9415 -71.442
rradius 33.1294
rwrist 1.21369
rhand -7.41236 -55.7168
rfingers 7.12502
rthumb 18.4742 -84.8596
lclavicle -2.97197e-015 4.34861e-015
lhumerus -27.0742 -1.24047 82.4174
lradius 36.7791
lwrist 0.490452
lhand -22.0524 -13.6282
lfingers 7.12502
lthumb 4.3582 16.307
rfemur -30.8739 4.51587 20.1225
rtibia 13.4029
rfoot -12.1678 -4.61555
rtoes -27.7944
lfemur -29.0849 -7.37528 -22.3161
ltibia 49.0656
lfoot -0.764641 -4.39356
ltoes -16.0338
448
root 9.27205 16.2749 4.95882 -158.897 -3.59892 178.621
lowerback -23.3992 -3.85776 -3.66064
upperback 1.23577 -4.39605 1.22056
thorax 15.0179 -2.38678 1.90526
lowerneck -1.90782 -2.16122 -2.24567
upperneck 20.2691 -1.98132 3.32644
head 6.51929 -0.328187 1.38323
rclavicle 1.12981e-014 2.73329e-016
rhumerus -44.1449 -21.4771 -72.1106
rradius 33.9282
rwrist 0.760498
rhand -7.10322 -57.4939
rfingers 7.12502
rthumb 18.7715 -86.6082
lclavicle 1.12981e-014 2.73329e-016
lhumerus -27.2367 -1.65995 82.4858
lradius 36.2281
lwrist 0.0863565
lhand -22.1436 -13.5355
lfingers 7.12502
lthumb 4.27006 16.4015
rfemur -30.8498 5.60496 20.1299
rtibia 13.2531
rfoot -12.2303 -5.18283
rtoes -27.6025
lfemur -30.9493 -6.25498 -21.9371
ltibia 51.8835
lfoot 1.30214 -4.0886
ltoes -17.1571
449
root 9.29164 16.2756 4.90808 -158.548 -3.65269 178.658
lowerback -23.398 -3.77157 -3.56385
upperback 1.1448 -4.31099 1.19005
thorax 14.8906 -2.34012 1.84863
lowerneck -1.91228 -2.16313 -2.16084
upperneck 20.0761 -2.01897 3.3714
head 6.45854 -0.346895 1.37858
rclavicle 4.56584e-016 8.18744e-015
rhumerus -43.8427 -20.9553 -72.819
rradius 34.6711
rwrist 0.186901
rhand -7.07005 -55.0475
rfingers 7.12502
rthumb 18.8035 -84.1586
lclavicle 4.56584e-016 8.18744e-015
lhumerus -27.4076 -1.86904 82.4952
lradius 35.5652
lwrist -0.45883
lhand -21.9612 -14.1035
lfingers 7.12502
lthumb 4.44622 15.8298
rfemur -30.9611 5.61015 20.2315
rtibia 13.1272
rfoot -12.3691 -4.99136
rtoes -25.8951
lfemur -33.1029 -5.75383 -21.7808
ltibia 54.7679
lfoot 2.85896 -4.06343
ltoes -21.7076
450
root 9.3066 16.2653 4.83086 -158.514 -3.66907 178.565
lowerback -23.5557 -3.73677 -3.5735
upperback 1.1831 -4.24243 1.09939
thorax 15.0151 -2.30505 1.76636
lowerneck -1.82905 -2.16477 -1.91944
upperneck 20.0781 -1.97831 3.05895
head 6.43822 -0.330876 1.24099
rclavicle -3.53216e-014 2.95692e-015
rhumerus -43.5012 -20.6125 -73.3207
rradius 35.0958
rwrist -0.0305152
rhand -6.55733 -55.1245
rfingers 7.12502
rthumb 19.2965 -84.1872
lclavicle -3.53216e-014 2.95692e-015
lhumerus -27.6841 -1.97338 82.4717
lradius 34.9397
lwrist -1.04706
lhand -21.7078 -14.403
lfingers 7.12502
lthumb 4.69089 15.525
rfemur -30.4621 5.30499 20.3171
rtibia 12.8012
rfoot -12.5476 -4.47756
rtoes -23.9483
lfemur -34.6448 -5.41094 -21.9006
ltibia 57.3465
lfoot 3.66407 -4.10668
ltoes -26.564
